<svg width="18" height="18" viewBox="0 0 18 18" fill="none" xmlns="http://www.w3.org/2000/svg">
<path d="M4.10753 6.70961C4.22088 6.71145 4.33347 6.69072 4.43873 6.64862C4.54399 6.60652 4.63982 6.54389 4.72064 6.46438C4.80145 6.38487 4.86563 6.29008 4.90945 6.18551C4.95326 6.08095 4.97582 5.96872 4.97582 5.85535C4.97582 5.74198 4.95326 5.62974 4.90945 5.52518C4.86563 5.42062 4.80145 5.32582 4.72064 5.24631C4.63982 5.16681 4.54399 5.10418 4.43873 5.06208C4.33347 5.01997 4.22088 4.99924 4.10753 5.00109C3.88093 5.00109 3.66362 5.0911 3.5034 5.25133C3.34317 5.41156 3.25316 5.62887 3.25316 5.85546C3.25316 6.08205 3.34317 6.29937 3.5034 6.45959C3.66362 6.61982 3.88093 6.70961 4.10753 6.70961ZM1.78211 9.33577C2.0087 9.33577 2.22601 9.24576 2.38624 9.08553C2.54646 8.92531 2.63648 8.70799 2.63648 8.4814C2.63648 8.25481 2.54646 8.03749 2.38624 7.87727C2.22601 7.71704 2.0087 7.62703 1.78211 7.62703C1.55551 7.62703 1.3382 7.71704 1.17797 7.87727C1.01775 8.03749 0.927734 8.25481 0.927734 8.4814C0.927734 8.70799 1.01775 8.92531 1.17797 9.08553C1.3382 9.24576 1.55551 9.33577 1.78211 9.33577Z" fill="#6C7278"/>
<path fill-rule="evenodd" clip-rule="evenodd" d="M16.5566 0.252199C16.0922 0.0116882 15.5514 -0.0345395 15.053 0.123684C14.5546 0.281907 14.1394 0.631622 13.8989 1.09591L11.7113 5.31946C11.6998 5.34177 11.6896 5.3648 11.6809 5.3884C10.6095 5.35166 9.54808 5.825 8.83228 6.66282C7.98857 7.64987 6.95094 8.72719 6.06437 9.27719C4.80016 10.0615 3.75505 10.3441 3.10594 10.4443C2.92642 10.4718 2.7563 10.5426 2.61034 10.6506C2.46438 10.7587 2.34699 10.9007 2.26835 11.0644C2.1114 11.3955 2.12319 11.8292 2.42802 12.1649C3.09029 12.8947 4.38148 14.09 6.74977 15.5964C8.39002 16.6397 9.86061 17.2165 10.6522 17.4839C11.2589 17.6887 11.9071 17.4544 12.255 16.9332C12.695 16.2741 13.4679 15.0312 14.1316 13.5189C14.6224 12.4003 15.0451 11.247 15.45 10.096C15.7913 9.12478 15.6378 8.10053 15.1188 7.29084L17.3985 2.91374C17.5182 2.68376 17.5914 2.43242 17.6139 2.1741C17.6364 1.91579 17.6077 1.65557 17.5295 1.40835C17.4513 1.16113 17.3252 0.93176 17.1582 0.733371C16.9912 0.534983 16.7868 0.371472 16.5566 0.252199ZM14.259 6.38861L16.3524 2.36896C16.4031 2.2764 16.4348 2.17464 16.4457 2.06966C16.4565 1.96468 16.4462 1.8586 16.4155 1.75763C16.3848 1.65666 16.3342 1.56285 16.2668 1.48169C16.1993 1.40054 16.1163 1.33368 16.0226 1.28504C15.929 1.23639 15.8265 1.20695 15.7213 1.19843C15.6162 1.18991 15.5103 1.20249 15.4101 1.23543C15.3098 1.26837 15.2171 1.32101 15.1375 1.39025C15.0578 1.45949 14.9928 1.54394 14.9462 1.63865L12.8678 5.65036C12.9374 5.67985 13.0064 5.71183 13.0749 5.74653L13.8342 6.13164C13.9839 6.20739 14.1254 6.29335 14.2588 6.38838L14.259 6.38861ZM14.3373 9.70471C14.2534 9.94376 14.1649 10.1923 14.0728 10.4455L9.28725 7.93383C9.44148 7.76214 9.5889 7.59271 9.72907 7.42896C10.4412 6.59523 11.6106 6.32647 12.5419 6.79867L13.3012 7.18379C14.2368 7.65803 14.6793 8.73286 14.3377 9.70471H14.3373ZM6.68604 10.2794C7.26802 9.91836 7.87517 9.39082 8.4449 8.82381L8.45261 8.82789L13.6578 11.5593C13.467 12.0591 13.265 12.5545 13.0517 13.0451C12.4251 14.473 11.6916 15.6533 11.2745 16.2782C11.2151 16.3673 11.1185 16.3963 11.0296 16.3666C10.5412 16.2 10.0613 16.0095 9.59163 15.7958C9.86674 15.5055 10.2659 15.0314 10.6483 14.3796C10.8136 14.0981 10.7182 13.7407 10.4351 13.5812C10.1521 13.4218 9.78849 13.5211 9.62315 13.8026C9.3156 14.3265 8.94024 14.8423 8.47983 15.2446C8.10659 15.0433 7.74068 14.8287 7.38278 14.6012C7.09184 14.4163 6.80376 14.227 6.51866 14.0333C6.67831 13.9252 6.83151 13.8079 6.97748 13.6819C7.22538 13.4694 7.2501 13.1016 7.03237 12.8609C6.81464 12.6203 6.43746 12.5971 6.18934 12.8099C5.82418 13.1229 5.56948 13.2419 5.46651 13.2821C4.52754 12.5767 3.89839 11.9972 3.49128 11.5749C4.2801 11.4282 5.39416 11.0807 6.68604 10.2794Z" fill="#6C7278"/>
</svg>
